<svg class="svg-icon" style="width: 1em; height: 1em;vertical-align: middle;fill: currentColor;overflow: hidden;" viewBox="0 0 1024 1024" version="1.1" xmlns="http://www.w3.org/2000/svg"><path d="M512 0C229.248 0 0 229.248 0 512s229.248 512 512 512 512-229.248 512-512S794.752 0 512 0zM512 128c166.624 0 307.36 107.328 360.512 256L151.488 384C204.64 235.328 345.376 128 512 128zM512 576c-35.36 0-64-28.64-64-64s28.64-64 64-64 64 28.64 64 64S547.36 576 512 576zM128 512c174.88 0 316.512 168.512 319.488 377.504C266.496 858.496 128 701.632 128 512zM576.512 889.504C579.488 680.512 721.12 512 896 512 896 701.632 757.504 858.496 576.512 889.504z"  /></svg>